<?xml version="1.0" standalone="no"?>
<!DOCTYPE svg PUBLIC "-//W3C//DTD SVG 1.1//EN" "http://www.w3.org/Graphics/SVG/1.1/DTD/svg11.dtd" >
<svg xmlns="http://www.w3.org/2000/svg">
<metadata></metadata>
<defs>
<font id="cevaregular" horiz-adv-x="1126" >
<font-face units-per-em="2048" ascent="1366" descent="-682" />
<missing-glyph horiz-adv-x="500" />
<glyph horiz-adv-x="2048" />
<glyph horiz-adv-x="2048" />
<glyph unicode="&#xd;" horiz-adv-x="2048" />
<glyph unicode=" " />
<glyph unicode="!" horiz-adv-x="614" d="M190 -420q0 46 32 79.5t79 33.5t80 -33.5t33 -79.5t-33 -79t-80 -33t-79 33t-32 79zM213 92v1432h186v-1432h-186z" />
<glyph unicode="&#x22;" d="M311 1059v463h185v-463h-185zM631 1061v463h184v-463h-184z" />
<glyph unicode="#" horiz-adv-x="1200" d="M2 125v186h940v-186h-940zM14 -274l295 1351h185l-295 -1351h-185zM70 600v186h940v-186h-940zM512 -274l295 1351h184l-295 -1351h-184z" />
<glyph unicode="$" d="M2 369v18q0 195 137 332q105 105 246 129v282h184v-460h-114q-102 -6 -183 -84q-84 -81 -84 -199v-18h-186zM360 387q0 46 32 79.5t79 33.5t80 -33.5t33 -79.5q0 -47 -33 -80t-80 -33t-79 33t-32 80zM385 106h127q90 12 158 80q82 85 82 201v19h190v-19q0 -193 -137 -330 q-106 -103 -236 -127v-286h-184v462z" />
<glyph unicode="%" horiz-adv-x="1048" d="M129 1176q0 46 32 79t77 33q47 0 80.5 -33t33.5 -79q0 -47 -33.5 -80t-80.5 -33q-46 0 -77.5 33t-31.5 80zM219 0l295 1352h184l-295 -1352h-184zM616 377q0 45 32.5 78.5t78.5 33.5q47 0 80 -33.5t33 -78.5q0 -47 -33 -80t-80 -33t-79 33t-32 80z" />
<glyph unicode="&#x26;" d="M6 381q0 192 137 332q136 133 332 133q43 0 92 -16t89.5 -38.5t74.5 -45t53 -38.5l19 -16q-8 -8 -21 -21.5t-41 -42t-46.5 -46t-18.5 -15.5q-88 95 -201 95q-114 0 -199 -82q-81 -81 -81 -199q0 -117 81 -201q87 -84 199 -84h283v385h186v-567h-469q-191 0 -332 135 q-137 137 -137 332zM365 1176q0 46 31.5 79t78.5 33t80 -33t33 -79q0 -47 -33 -80t-80 -33t-78.5 32.5t-31.5 80.5z" />
<glyph unicode="'" horiz-adv-x="612" d="M211 1059v461h184v-461h-184z" />
<glyph unicode="(" horiz-adv-x="763" d="M0 -262v-17q0 -194 137 -331q138 -138 332 -138h39v187h-37q-120 0 -201 84q-84 81 -84 198v17h-186zM0 1030v21q0 191 137 331q138 138 332 138h39v-191h-37q-119 0 -201 -82q-84 -84 -84 -196v-21h-186z" />
<glyph unicode=")" horiz-adv-x="755" d="M2 -561h37q118 0 199 84q81 78 81 198v17h191v-17q0 -194 -137 -331q-141 -138 -332 -138h-39v187zM2 1333h37q117 0 199 -82q81 -81 81 -196v-21h191v21q0 191 -137 331q-141 138 -334 138h-37v-191z" />
<glyph unicode="*" horiz-adv-x="618" d="M199 1176q0 46 31.5 79t78.5 33t80 -33t33 -79q0 -47 -33 -80t-80 -33t-78.5 32.5t-31.5 80.5z" />
<glyph unicode="+" horiz-adv-x="765" d="M2 281v188h563v-188h-563zM193 92v563h186v-563h-186z" />
<glyph unicode="," horiz-adv-x="612" d="M219 -90h184v-658h-184v658z" />
<glyph unicode="-" horiz-adv-x="772" d="M2 281v188h563v-188h-563z" />
<glyph unicode="." horiz-adv-x="940" d="M358 -420q0 46 32 79.5t79 33.5t80 -33.5t33 -79.5t-33 -79t-80 -33t-79 33t-32 79z" />
<glyph unicode="/" horiz-adv-x="940" d="M213 2l295 1352h184l-295 -1352h-184z" />
<glyph unicode="0" d="M0 377q0 193 137 330q136 139 332 139q195 0 334 -139q137 -137 137 -330q0 -195 -137 -332q-141 -135 -334 -135q-194 0 -332 135q-137 137 -137 332zM2 -317h940v-187h-940v187zM186 377q0 -117 84 -201q81 -84 199 -84t199 84q82 82 82 201q0 117 -82 196 q-81 84 -199 84t-199 -84q-84 -81 -84 -196zM358 377q0 45 32.5 78.5t78.5 33.5q47 0 80 -33.5t33 -78.5q0 -47 -33 -80t-80 -33t-79 33t-32 80z" />
<glyph unicode="1" horiz-adv-x="880" d="M2 -94h657v-189h-657v189zM238 92v565h186v-565h-186z" />
<glyph unicode="2" d="M0 358v19q0 193 137 330q136 139 332 139q195 0 334 -139q137 -137 137 -330q0 -195 -137 -332q-141 -135 -334 -135h-283v182h283q118 0 199 84q82 82 82 201q0 117 -82 196q-81 84 -199 84t-199 -84q-84 -81 -84 -196v-19h-186zM186 -279h660v-188h-660v188z" />
<glyph unicode="3" d="M0 377v18h186v-18q0 -117 84 -201q81 -84 199 -84t199 84q82 82 82 201q0 117 -82 196q-81 84 -199 84h-37v189h37q195 0 334 -139q137 -137 137 -330q0 -195 -137 -332q-141 -135 -334 -135q-194 0 -332 135q-137 137 -137 332zM186 1032v187h660v-187h-660z" />
<glyph unicode="4" d="M0 0v285q0 45 15.5 94t38 86t45 67.5t37.5 47.5l16 16l127 -115q-51 -31 -68.5 -80.5t-17.5 -119.5v-283zM0 -158h940v-372h-190v190l-750 -2v184z" />
<glyph unicode="5" d="M0 377v45h186v-45q0 -117 84 -201q81 -84 199 -84t199 84q82 82 82 201q0 117 -82 196q-81 84 -199 84h-283v189h283q195 0 334 -139q137 -137 137 -330q0 -195 -137 -332q-141 -135 -334 -135q-194 0 -332 135q-137 137 -137 332zM186 1034v185h660v-185h-660z" />
<glyph unicode="6" d="M0 377q0 -195 137 -332q138 -135 332 -135q193 0 334 135q137 137 137 332q0 193 -137 330q-139 139 -334 139h-283v674h-186v-863h469q118 0 199 -84q82 -79 82 -196q0 -119 -82 -201q-81 -84 -199 -84t-199 84q-84 84 -84 201v18h-186v-18zM2 -295h940v-186h-940v186z " />
<glyph unicode="7" d="M0 92v285q0 193 137 330q136 139 332 139h281v-189h-279q-120 0 -201 -84q-84 -81 -84 -196v-285h-186zM92 1032v187h848v-187h-848z" />
<glyph unicode="8" d="M0 377q0 193 137 330q136 139 332 139q195 0 334 -139q137 -137 137 -330q0 -195 -137 -332q-141 -135 -334 -135q-194 0 -332 135q-137 137 -137 332zM2 -319h940v-189h-940v189zM186 377q0 -117 84 -201q81 -84 199 -84t199 84q82 82 82 201q0 117 -82 196 q-81 84 -199 84t-199 -84q-84 -81 -84 -196zM358 1174q0 46 32 79t79 33t80 -33t33 -79q0 -47 -33 -80t-80 -33t-79 33t-32 80z" />
<glyph unicode="9" d="M0 377q0 -195 137 -332q138 -135 332 -135h281v-658h190v840h-471q-118 0 -199 84q-84 84 -84 201q0 115 84 196q81 84 199 84t199 -84q82 -79 82 -196v-21h190v21q0 193 -137 330q-139 139 -334 139q-196 0 -332 -139q-137 -137 -137 -330zM2 1030v187h940v-187h-940z " />
<glyph unicode=":" horiz-adv-x="622" d="M199 377q0 45 32 78.5t78 33.5q47 0 80 -33.5t33 -78.5q0 -47 -33 -80t-80 -33t-78.5 32.5t-31.5 80.5zM199 -420q0 46 31.5 79.5t78.5 33.5t80 -33.5t33 -79.5t-33 -79t-80 -33t-78.5 33t-31.5 79z" />
<glyph unicode=";" horiz-adv-x="612" d="M199 377q0 45 32.5 78.5t79.5 33.5q46 0 78.5 -33.5t32.5 -78.5q0 -47 -32 -80t-79 -33t-79.5 33t-32.5 80zM217 -90h186v-658h-186v658z" />
<glyph unicode="&#x3c;" d="M356 377q0 45 33 78.5t80 33.5t80 -33.5t33 -78.5q0 -47 -33 -80t-80 -33t-80 33t-33 80zM573 115q110 43 154 153l174 -71q-73 -179 -254 -254zM573 635l76 174q178 -73 252 -254l-174 -74q-42 110 -154 154z" />
<glyph unicode="=" horiz-adv-x="772" d="M2 0v186h563v-186h-563zM2 281v188h563v-188h-563z" />
<glyph unicode="&#x3e;" d="M12 197l174 71q47 -110 154 -153l-72 -172q-180 73 -256 254zM12 557q81 181 256 252l72 -174q-106 -43 -152 -150zM336 377q0 45 33 78.5t80 33.5t79.5 -33.5t32.5 -78.5q0 -47 -32.5 -80t-79.5 -33t-80 33t-33 80z" />
<glyph unicode="?" d="M0 356v21q0 193 137 330q136 139 332 139q195 0 334 -139q137 -137 137 -330q0 -195 -137 -332q-141 -135 -334 -135h-37v182h37q118 0 199 84q82 82 82 201q0 117 -82 196q-81 84 -199 84t-199 -84q-84 -81 -84 -196v-21h-186zM358 -420q0 46 32 79.5t79 33.5t80 -33.5 t33 -79.5t-33 -79t-80 -33t-79 33t-32 79z" />
<glyph unicode="@" horiz-adv-x="1376" d="M2 33q9 2 21 4h-21v878q0 192 133 328q143 143 332 137h223q195 0 330 -135q145 -148 145 -332q0 -2 -90 -2.5t-90 2.5q0 105 -94 199q-82 82 -203 82h-221q-120 0 -201 -84q-90 -87 -90 -195v-878q0 -107 94 -201q81 -84 201 -84h479v-186h-479q-195 0 -332 137 q-137 140 -137 330zM225 385q0 195 137 332t332 137q197 0 334 -137t137 -332v-283h-190v283q0 117 -82 199q-84 84 -199 84q-114 0 -198 -84t-84 -199q0 -114 84 -201q82 -82 198 -82h39v-184h-39q-194 0 -332 135q-137 137 -137 332z" />
<glyph unicode="A" d="M4 375q0 193 137 336q137 137 330 137h285h184v-938h-465q-195 0 -330 135q-141 132 -141 330zM193 377q0 -119 83 -199q81 -84 197 -84h283v563h-283q-118 0 -197 -82q-83 -80 -83 -198z" />
<glyph unicode="B" d="M2 379v1145h186v-1145q0 -117 84 -201t199 -84q118 0 199 84q82 82 82 201q0 117 -82 199q-81 81 -199 81h-37v189h37q198 0 334 -139q137 -137 137 -330q0 -195 -137 -332q-138 -135 -334 -135q-194 0 -332 135q-137 137 -137 332z" />
<glyph unicode="C" d="M6 383q0 195 137 332q140 137 332 137h250v-186h-250q-115 0 -199 -84q-81 -78 -81 -199q0 -117 81 -201q39 -37 86 -57t111 -35h254v-172h-252q-191 0 -332 135q-137 137 -137 330z" />
<glyph unicode="D" d="M8 383q0 195 137 332q140 137 332 137h39v-188h-39q-113 0 -198 -82q-82 -82 -82 -199q0 -116 82 -201q87 -84 198 -84q118 0 199 84q84 84 84 201v1137h188v-1137q0 -195 -137 -332q-138 -135 -334 -135q-191 0 -332 135q-137 137 -137 332z" />
<glyph unicode="E" d="M205 586q0 192 137 329q137 140 332 140q194 0 334 -140q137 -137 137 -329v-109h-473v187h272q-17 63 -72 118q-81 84 -196 84q-120 0 -201 -84q-84 -81 -84 -196q0 -117 84 -201q81 -84 199 -84h39v-182h-37q-196 0 -334 135q-137 137 -137 332z" />
<glyph unicode="F" d="M2 379q0 193 137 330q136 139 332 139q198 0 334 -139q137 -137 137 -330v-19h-190v19q0 117 -82 199q-81 81 -199 81q-115 0 -199 -81q-84 -84 -84 -199v-291h367v-184h-367v-649h-186v1124z" />
<glyph unicode="G" d="M6 379q0 192 137 332q140 137 332 137h39v-189h-39q-115 0 -199 -81q-81 -81 -81 -199q0 -117 81 -201q87 -84 199 -84q115 0 199 84q57 57 74 125h-271v184h469v-575h-188v90q-124 -90 -283 -90q-191 0 -332 135q-137 137 -137 332z" />
<glyph unicode="H" d="M2 92v1428h186v-768q128 96 283 96q198 0 334 -139q137 -137 137 -330v-287h-190v287q0 117 -82 199q-81 81 -199 81q-115 0 -199 -81q-84 -84 -84 -199v-287h-186z" />
<glyph unicode="I" horiz-adv-x="759" d="M-2 1176q0 46 32 79t79 33t79.5 -33t32.5 -79q0 -47 -32.5 -80t-79.5 -33t-79 33t-32 80zM0 655v193h109q197 0 333 -139q138 -138 138 -330v-285h-189v285q0 115 -84 199q-77 77 -192 77h-115z" />
<glyph unicode="J" horiz-adv-x="759" d="M0 657v191h111q196 0 333 -137q138 -141 138 -332v-1124h-189v1124q0 118 -84 199q-24 24 -72.5 44t-84.5 28l-37 7h-115zM0 1176q0 46 32 79t79 33t79.5 -33t32.5 -79q0 -47 -32.5 -80t-79.5 -33t-79 33t-32 80z" />
<glyph unicode="K" d="M256 98v1432h186v-981h27q118 0 199 84q82 82 82 201v18h190v-18q0 -195 -137 -332q-129 -126 -307 -135q184 -9 309 -131q137 -137 137 -332v-19h-190v19q0 118 -82 200q-75 78 -199 78h-29v-84h-186z" />
<glyph unicode="L" d="M2 383v1137h186v-1137q0 -114 84 -201q87 -84 199 -84q115 0 199 84q82 85 82 201v18h190v-18q0 -195 -137 -332q-138 -135 -334 -135q-194 0 -332 135q-137 137 -137 332z" />
<glyph unicode="M" horiz-adv-x="1878" d="M2 96v285q0 193 137 330q136 139 332 139q198 0 334 -139l43 -49q18 24 43 49q136 139 332 139q197 0 333 -139q138 -138 138 -330v-285h-191v285q0 118 -82 197q-81 84 -198 84q-115 0 -199 -84q-72 -69 -84 -166q2 -10 2 -31v-285h-190v285q0 118 -82 197 q-81 84 -199 84q-115 0 -199 -84q-84 -81 -84 -197v-285h-186z" />
<glyph unicode="N" d="M2 94v285q0 193 137 330q136 139 332 139q198 0 334 -139q137 -137 137 -330v-285h-190v285q0 117 -82 196q-81 84 -199 84q-115 0 -199 -84q-84 -81 -84 -196v-285h-186z" />
<glyph unicode="O" d="M6 379q0 192 137 332q140 137 332 137q197 0 334 -137q137 -140 137 -332q0 -195 -137 -332q-138 -135 -334 -135q-191 0 -332 135q-137 137 -137 332zM195 379q0 -117 81 -201q87 -84 199 -84q115 0 199 84q84 87 84 201q0 115 -84 199q-81 81 -199 81q-115 0 -199 -81 q-81 -81 -81 -199z" />
<glyph unicode="P" d="M2 381q0 195 137 332t332 137q197 0 334 -137t137 -332t-137 -332q-138 -135 -334 -135h-37v184h37q117 0 199 82q82 85 82 201q0 117 -82 199q-84 84 -199 84q-112 0 -199 -84q-84 -84 -84 -199v-1124h-186v1124z" />
<glyph unicode="Q" d="M6 379q0 192 137 332q140 137 332 137q197 0 334 -137q137 -140 137 -332q0 -195 -137 -332q-138 -135 -334 -135q-191 0 -332 135q-137 137 -137 332zM195 379q0 -117 81 -201q87 -84 199 -84q115 0 199 84q84 87 84 201q0 115 -84 199q-81 81 -199 81q-115 0 -199 -81 q-81 -81 -81 -199zM389 225h184v-463h-184v463z" />
<glyph unicode="R" d="M2 92v285q0 193 137 330q136 139 332 139q198 0 334 -139q137 -137 137 -330v-19h-190v19q0 117 -82 196q-81 84 -199 84q-115 0 -199 -84q-84 -81 -84 -196v-285h-186z" />
<glyph unicode="S" d="M6 1126v41h189v-41q0 -116 84 -200q74 -80 184 -92l16 -5q91 0 168.5 -33t157.5 -96q129 -138 129 -325q0 -195 -137 -332t-332 -137h-21v186h23q117 0 201 84q84 81 84 199q0 117 -84 198q-82 82 -201 82h-14q-179 9 -308 138q-139 139 -139 333z" />
<glyph unicode="T" d="M2 389v1139h186v-264h316v-187l-316 2v-690q0 -114 84 -201q87 -84 199 -84q115 0 199 84q82 85 82 201v19h190v-19q0 -195 -137 -332q-138 -135 -334 -135q-194 0 -332 135q-137 137 -137 332z" />
<glyph unicode="U" d="M2 377v280h186v-280q0 -117 84 -201t199 -84q118 0 199 84q82 82 82 201v280h190v-280q0 -195 -137 -332q-138 -135 -334 -135q-194 0 -332 135q-137 137 -137 332z" />
<glyph unicode="V" d="M4 381v20h189v-20q0 -117 81 -201q87 -84 199 -84q115 0 199 84q84 87 84 201v18h188v-18q0 -195 -137 -332q-138 -135 -334 -135q-194 0 -332 135q-137 137 -137 332z" />
<glyph unicode="W" horiz-adv-x="1886" d="M2 381v20h188v-20q0 -116 82 -201q87 -84 199 -84q115 0 199 84q78 81 84 182v15v22h188v-18v-4q0 -116 82 -201q87 -84 199 -84q114 0 198 84q84 87 84 201v18h189v-18q0 -194 -138 -332q-138 -135 -333 -135q-194 0 -332 135q-33 33 -45 51q-18 -24 -41 -47 q-138 -135 -334 -135q-194 0 -332 135q-137 137 -137 332z" />
<glyph unicode="X" d="M0 862v19h186v-19q0 -116 84 -200t199 -84q118 0 199 84q82 82 82 200v19h190v-19q0 -195 -137 -332q-132 -129 -316 -135q190 -6 318 -131q137 -137 137 -332v-18h-190v18q0 119 -82 201q-81 84 -199 84q-115 0 -199 -84t-84 -201v-18h-186v18q0 195 137 332 q122 122 301 131q-174 9 -303 135q-137 137 -137 332z" />
<glyph unicode="Y" d="M8 379v18h189v-18q0 -119 82 -201q84 -84 198 -84q121 0 199 84q84 81 84 201v18h188v-18q0 -195 -137 -332q-105 -102 -233 -125v-344h-185v340q-140 24 -248 129q-137 137 -137 332z" />
<glyph unicode="Z" horiz-adv-x="1128" d="M2 92v309q6 182 137 322q80 63 157.5 96t168.5 33l16 4q111 12 185 92q84 84 84 201v4h-312v184h500v-188q0 -195 -139 -334q-128 -128 -307 -137h-15q-119 0 -201 -82q-83 -80 -83 -193h-3v-127q314 -1 471.5 -1t157.5 1v-184h-817z" />
<glyph unicode="[" horiz-adv-x="774" d="M0 -262v-17q0 -194 137 -331q138 -138 332 -138h39v187h-37q-120 0 -201 84q-84 81 -84 198v17h-186zM0 1034v21q0 191 137 331q138 138 332 138h39v-191h-37q-119 0 -201 -82q-84 -84 -84 -196v-21h-186zM358 -279q0 46 32 79.5t79 33.5t80 -33.5t33 -79.5 q0 -47 -33 -79.5t-80 -32.5t-79 32.5t-32 79.5zM358 1055q0 46 32 78t79 32t80 -32t33 -78q0 -49 -32.5 -81t-80.5 -32t-79.5 32t-31.5 81z" />
<glyph unicode="\" horiz-adv-x="911" d="M207 1352h186l285 -1352h-184z" />
<glyph unicode="]" horiz-adv-x="817" d="M33 -279q0 46 31.5 79.5t78.5 33.5t80 -33.5t33 -79.5q0 -47 -33 -79.5t-80 -32.5t-78.5 32.5t-31.5 79.5zM33 1053q0 46 31.5 78t78.5 32t80 -32t33 -78q0 -49 -32.5 -81t-80.5 -32q-47 0 -78.5 32t-31.5 81zM106 -561h37q118 0 199 84q82 79 82 198v17h190v-17 q0 -194 -137 -331q-141 -138 -332 -138h-39v187zM106 1331h37q117 0 199 -82t82 -196v-21h190v21q0 191 -137 331q-141 138 -334 138h-37v-191z" />
<glyph unicode="^" horiz-adv-x="866" d="M4 1364q2 2 21.5 16.5t56.5 38t77 45.5t87 38.5t84 17.5h35q26 -1 57.5 -10t61.5 -22.5t58.5 -28.5t54.5 -32t44 -29.5t33 -23.5l14 -10q-1 -1 -33 -32t-62.5 -61t-27.5 -30q-40 43 -94.5 66.5t-108.5 23.5h-16l-16 -2q-131 -13 -201 -88q3 0 -28.5 30.5t-64.5 61.5z" />
<glyph unicode="_" d="M0 -279h940v-188h-940v188z" />
<glyph unicode="`" horiz-adv-x="804" d="M205 1520h184l199 -461h-187z" />
<glyph unicode="a" d="M0 379q0 193 137 330q136 139 332 139q195 0 334 -139q137 -137 137 -330v-285h-190v285q0 117 -82 196q-81 84 -199 84t-199 -84q-84 -81 -84 -196q0 -117 84 -201q81 -84 199 -84h39v-182h-39q-194 0 -332 135q-137 137 -137 332z" />
<glyph unicode="b" d="M0 379v1141h186v-1141q0 -117 84 -201q81 -84 199 -84t199 84q82 82 82 201q0 117 -82 196q-81 84 -199 84h-37v189h37q195 0 334 -139q137 -137 137 -330q0 -195 -137 -332q-141 -135 -334 -135q-194 0 -332 135q-137 137 -137 332z" />
<glyph unicode="c" d="M0 379q0 193 137 330q136 139 332 139h39v-189h-39q-118 0 -199 -84q-84 -81 -84 -196q0 -117 84 -201q81 -84 199 -84t199 84q82 82 82 201v18h190v-18q0 -195 -137 -332q-141 -135 -334 -135q-194 0 -332 135q-137 137 -137 332z" />
<glyph unicode="d" d="M0 377q0 193 137 330q136 139 332 139h39v-189h-39q-118 0 -199 -84q-84 -81 -84 -196q0 -117 84 -201q81 -84 199 -84t199 84q82 82 82 201v1147h190v-1147q0 -195 -137 -332q-141 -135 -334 -135q-194 0 -332 135q-137 137 -137 332z" />
<glyph unicode="e" d="M0 377q0 193 137 330q136 139 332 139q195 0 334 -139q137 -137 137 -330v-19h-190v19q0 117 -82 196q-81 84 -197 84q-120 0 -201 -84q-84 -81 -84 -196q0 -117 84 -201q81 -84 199 -84h39v-182h-37q-196 0 -334 135q-137 137 -137 332zM358 377q0 45 32.5 78.5 t78.5 33.5q47 0 80 -33.5t33 -78.5q0 -47 -33 -80t-80 -33t-79 33t-32 80z" />
<glyph unicode="f" d="M0 379q0 193 137 330q136 139 332 139q195 0 334 -139q137 -137 137 -330v-19h-190v19q0 117 -82 196q-81 84 -199 84t-199 -84q-84 -81 -84 -196v-1124h-186v1124zM356 379q0 45 33 79t80 34t80 -34t33 -79q0 -47 -33 -80t-80 -33t-80 33t-33 80z" />
<glyph unicode="g" d="M0 377q0 193 137 330q136 139 332 139h39v-189h-39q-118 0 -199 -84q-84 -81 -84 -196q0 -117 84 -201q81 -84 199 -84t199 84q82 82 82 201v18h190v-1143h-190v748q-121 -90 -281 -90q-194 0 -332 135q-137 137 -137 332z" />
<glyph unicode="h" d="M0 358v1164h186v-772q128 96 283 96q195 0 334 -139q137 -137 137 -330v-19h-190v19q0 117 -82 196q-81 84 -199 84t-199 -84q-84 -81 -84 -196v-19h-186z" />
<glyph unicode="i" d="M0 360v19q0 193 137 330q136 139 332 139q195 0 334 -139q137 -137 137 -330v-285h-190v285q0 117 -82 196q-81 84 -199 84t-199 -84q-84 -81 -84 -196v-19h-186zM358 1174q0 46 32 79t79 33t80 -33t33 -79q0 -47 -33 -80t-80 -33t-79 33t-32 80z" />
<glyph unicode="j" d="M0 360v19q0 193 137 330q136 139 332 139q195 0 334 -139q137 -137 137 -330v-1124h-190v1124q0 117 -82 196q-81 84 -199 84t-199 -84q-84 -81 -84 -196v-19h-186zM358 1174q0 46 32 79t79 33t80 -33t33 -79q0 -47 -33 -80t-80 -33t-79 33t-32 80z" />
<glyph unicode="k" d="M0 360v1160h186v-768q128 96 283 96q195 0 334 -139q137 -137 137 -330v-19h-190v19q0 117 -82 196q-81 84 -199 84t-199 -84q-84 -81 -84 -196v-19h-186zM358 1176q0 46 32 79t79 33t80 -33t33 -79q0 -47 -33 -80t-80 -33t-79 33t-32 80z" />
<glyph unicode="l" d="M0 377v1143h186v-1143q0 -117 84 -201q81 -84 199 -84t199 84q82 82 82 201v18h190v-18q0 -195 -137 -332q-141 -135 -334 -135q-194 0 -332 135q-137 137 -137 332z" />
<glyph unicode="m" d="M2 98v285q0 193 137 330q136 139 332 139q198 0 334 -139q137 -137 137 -330v-285h-190v285q0 118 -82 197q-81 84 -199 84q-115 0 -199 -84q-84 -81 -84 -197v-285h-186zM360 383q0 45 32.5 79t78.5 34q47 0 80 -34t33 -79q0 -47 -33 -80t-80 -33t-79 33t-32 80z" />
<glyph unicode="n" d="M0 94v285q0 193 137 330q136 139 332 139q195 0 334 -139q137 -137 137 -330v-285h-190v285q0 117 -82 196q-81 84 -199 84t-199 -84q-84 -81 -84 -196v-285h-186z" />
<glyph unicode="o" d="M0 379q0 193 137 330q136 139 332 139q195 0 334 -139q137 -137 137 -330q0 -195 -137 -332q-141 -135 -334 -135q-194 0 -332 135q-137 137 -137 332zM186 379q0 -117 84 -201q81 -84 199 -84t199 84q82 82 82 201q0 117 -82 196q-81 84 -199 84t-199 -84 q-84 -81 -84 -196z" />
<glyph unicode="p" d="M0 379q0 193 137 330q136 139 332 139q195 0 334 -139q137 -137 137 -330q0 -195 -137 -332q-141 -135 -334 -135h-37v182h37q118 0 199 84q82 82 82 201q0 117 -82 196q-81 84 -199 84t-199 -84q-84 -81 -84 -196v-1124h-186v1124z" />
<glyph unicode="q" d="M0 379q0 193 137 330q136 139 332 139q195 0 334 -139q137 -137 137 -330v-1124h-190v1124q0 117 -82 196q-81 84 -199 84t-199 -84q-84 -81 -84 -196q0 -117 84 -201q81 -84 199 -84h39v-182h-39q-194 0 -332 135q-137 137 -137 332z" />
<glyph unicode="r" d="M0 94v285q0 193 137 330q136 139 332 139q195 0 334 -139q137 -137 137 -330v-19h-190v19q0 117 -82 196q-81 84 -199 84t-199 -84q-84 -81 -84 -196v-285h-186z" />
<glyph unicode="s" d="M0 360v19q0 193 137 330q136 139 334 139h37v-189h-37q-120 0 -201 -84q-84 -81 -84 -196v-19h-186zM358 379q0 45 32.5 79t78.5 34q47 0 80 -34t33 -79q0 -47 -33 -80t-80 -33t-79 33t-32 80zM432 -90v184h39q116 0 197 84q82 82 82 201v18h190v-18q0 -195 -137 -332 q-141 -135 -332 -135z" />
<glyph unicode="t" d="M0 377v1147h186v-1147q0 -117 84 -201q81 -84 199 -84t199 84q82 82 82 201v18h190v-18q0 -195 -137 -332q-141 -135 -334 -135q-194 0 -332 135q-137 137 -137 332zM358 1174q0 46 32 79t79 33t80 -33t33 -79q0 -47 -33 -80t-80 -33t-79 33t-32 80z" />
<glyph unicode="u" d="M0 377v280h186v-280q0 -117 84 -201q81 -84 199 -84t199 84q82 82 82 201v280h190v-280q0 -195 -137 -332q-141 -135 -334 -135q-194 0 -332 135q-137 137 -137 332z" />
<glyph unicode="v" d="M0 377v20h186v-20q0 -117 84 -201q81 -84 199 -84t199 84q82 82 82 201v18h190v-18q0 -195 -137 -332q-141 -135 -334 -135q-194 0 -332 135q-137 137 -137 332z" />
<glyph unicode="w" d="M0 377v18h186v-18q0 -117 84 -201q81 -84 199 -84t199 84q82 82 82 201v18h190v-18q0 -195 -137 -332q-141 -135 -334 -135q-194 0 -332 135q-137 137 -137 332zM358 377q0 45 32.5 78.5t78.5 33.5q47 0 80 -33.5t33 -78.5q0 -47 -33 -80t-80 -33t-79 33t-32 80z" />
<glyph unicode="x" d="M33 197l174 71q48 -111 153 -153l-71 -172q-180 73 -256 254zM33 557q81 181 256 252l71 -174q-105 -42 -151 -150zM356 377q0 45 33 78.5t80 33.5t80 -33.5t33 -78.5q0 -47 -33 -80t-80 -33t-80 33t-33 80zM573 115q110 43 154 153l174 -71q-73 -179 -254 -254zM573 635 l76 174q178 -73 252 -254l-174 -74q-42 110 -154 154z" />
<glyph unicode="y" d="M0 377v18h186v-18q0 -117 84 -201q81 -84 199 -84t199 84q82 82 82 201v18h190v-18q0 -195 -137 -332q-141 -135 -334 -135q-194 0 -332 135q-137 137 -137 332zM358 -420q0 46 32 79.5t79 33.5t80 -33.5t33 -79.5t-33 -79t-80 -33t-79 33t-32 79z" />
<glyph unicode="z" d="M0 379q0 -195 137 -332q138 -135 332 -135l39 -2v184h-39q-118 0 -199 84q-84 84 -84 201v18h-186v-18zM358 379q0 45 32.5 79t78.5 34q47 0 80 -34t33 -79q0 -47 -33 -80t-80 -33t-79 33t-32 80zM432 659h37q118 0 199 -84q82 -79 82 -196v-19h190v19q0 193 -137 330 q-139 139 -334 139h-37v-189z" />
<glyph unicode="{" horiz-adv-x="763" d="M0 -262v-17q0 -194 137 -331q138 -138 332 -138h39v187h-37q-120 0 -201 84q-84 81 -84 198v17h-186zM0 1030v21q0 191 137 331q138 138 332 138h39v-191h-37q-119 0 -201 -82q-84 -84 -84 -196v-21h-186zM358 377q0 45 32.5 78.5t78.5 33.5q47 0 80 -33.5t33 -78.5 q0 -47 -33 -80t-80 -33t-79 33t-32 80z" />
<glyph unicode="|" d="M481 -412v1932h160v-1932h-160z" />
<glyph unicode="}" horiz-adv-x="827" d="M25 377q0 45 32 78.5t78 33.5q47 0 80 -33.5t33 -78.5q0 -47 -33 -80t-80 -33t-78.5 32.5t-31.5 80.5zM98 -561h37q118 0 199 84q82 79 82 198v17h190v-17q0 -194 -137 -331q-141 -138 -332 -138h-39v187zM98 1329h37q117 0 199 -82t82 -196v-21h190v21q0 191 -137 331 q-141 138 -334 138h-37v-191z" />
<glyph unicode="~" d="M4 365v16q0 192 137 332q137 137 334 137h37v-2q89 9 160 80q84 87 84 200h188q0 -191 -137 -331q-126 -123 -295 -135h-18h-19l-39 -3q-92 -12 -162 -79q-81 -81 -81 -199v-16h-189z" />
<glyph unicode="&#xa0;" />
<glyph unicode="&#xa1;" horiz-adv-x="614" d="M190 1393q0 -46 32 -79.5t79 -33.5t80 33.5t33 79.5q0 47 -33 79.5t-80 32.5t-79 -32.5t-32 -79.5zM213 -530h186v1411h-186v-1411z" />
<glyph unicode="&#xa2;" d="M6 379q0 193 137 330q107 107 246 131v174h184v-903q55 18 101 67q84 84 84 201v18h188v-18q0 -195 -137 -332q-104 -101 -236 -125v-164h-184v162q-141 24 -246 127q-137 137 -137 332zM195 379q0 -120 81 -201q55 -55 113 -72v545q-34 -7 -57 -23.5t-56 -52.5 q-81 -91 -81 -196z" />
<glyph unicode="&#xa3;" horiz-adv-x="1296" d="M-2 657v189h166v516h2l9 6q9 7 18 13.5t25 17.5t31.5 21t35.5 22t39.5 22t41.5 19.5t42 16.5t41.5 11.5t39.5 4.5h19h16q59 -2 142 -42.5t129.5 -73t54.5 -40.5q-8 -8 -21.5 -20.5t-42 -39t-46 -44t-15.5 -17.5q-40 43 -94.5 66.5t-108.5 23.5h-12h-18q-67 0 -140 -41 v-442h174v-189h-174v-553q0 -3 51 -3t129 1.5t101 1.5q119 0 198 82q84 87 84 201v19h189v-19q0 -193 -137 -330t-334 -137h-469v737h-166z" />
<glyph unicode="&#xa4;" d="M6 373q0 192 137 329q141 138 332 138q196 0 334 -138q137 -137 137 -329q0 -195 -137 -332q-138 -135 -334 -135q-191 0 -332 135q-137 137 -137 332zM8 -213q0 46 32.5 79.5t78.5 33.5q47 0 79.5 -33.5t32.5 -79.5q0 -47 -32.5 -80t-79.5 -33t-79 31t-32 82zM8 967 q0 46 32.5 79t78.5 33q47 0 79.5 -33t32.5 -79q0 -47 -32.5 -80t-79.5 -33t-79 31t-32 82zM195 373q0 -120 81 -201q84 -84 199 -84q118 0 199 84q84 84 84 201q0 115 -84 196q-81 84 -199 84q-115 0 -199 -84q-81 -78 -81 -196zM717 -215q0 46 31.5 79.5t78.5 33.5 t80 -33.5t33 -79.5q0 -47 -33 -80t-80 -33t-78.5 32.5t-31.5 80.5zM717 965q0 46 31.5 79t78.5 33t80 -33t33 -79q0 -47 -33 -80t-80 -33t-78.5 32.5t-31.5 80.5z" />
<glyph unicode="&#xa5;" d="M-2 -43h262q-71 38 -119 86q-137 137 -137 332v16h189v-16q0 -120 81 -201q84 -84 199 -84q118 0 199 84q84 84 84 201v16h188v-16q0 -195 -137 -332q-46 -46 -121 -86h252v-186h-940v186zM362 -422q0 46 32 79.5t79 33.5t80 -33.5t33 -79.5q0 -47 -33 -80t-80 -33 t-79 33t-32 80z" />
<glyph unicode="&#xa6;" horiz-adv-x="614" d="M211 -217v766h184v-766h-184zM211 758v766h184v-766h-184z" />
<glyph unicode="&#xa7;" d="M6 358v19q0 193 137 330q139 139 334 139h37v-86q91 9 164 82q84 84 84 200v19h188v-19q0 -192 -137 -329q-138 -135 -332 -135l-37 -5v82q-95 -9 -168 -82q-81 -78 -81 -196v-19h-189zM10 1026v16q0 192 140 332q137 137 331 137h37v-186h-37q-116 0 -200 -84 q-82 -79 -82 -199v-16h-189zM365 377q0 45 32 78.5t78 33.5q47 0 80 -33.5t33 -78.5q0 -47 -33 -80t-80 -33t-78.5 32.5t-31.5 80.5zM369 1042q0 46 32.5 79.5t77.5 33.5q47 0 80 -33.5t33 -79.5t-33 -79t-80 -33q-46 0 -78 33t-32 79zM440 -92v184h37q116 0 197 84 q84 84 84 201v18h188v-18q0 -195 -137 -332q-138 -135 -332 -135z" />
<glyph unicode="&#xa8;" horiz-adv-x="917" d="M14 1174q0 46 32.5 79t78.5 33q47 0 80 -33t33 -79q0 -47 -33 -80t-80 -33t-79 31t-32 82zM467 1171q0 46 32.5 79.5t78.5 33.5q47 0 79.5 -33.5t32.5 -79.5q0 -47 -32.5 -79.5t-79.5 -32.5q-46 0 -78.5 32.5t-32.5 79.5z" />
<glyph unicode="&#xa9;" d="M2 -279h940v-188h-940v188zM8 379q0 195 137 332q140 137 332 137h39v-189h-39q-114 0 -198 -81q-82 -82 -82 -199q0 -116 82 -201q87 -84 198 -84q118 0 199 84q84 84 84 201v18h188v-18q0 -195 -137 -332q-138 -135 -334 -135q-191 0 -332 135q-137 137 -137 332z" />
<glyph unicode="&#xaa;" d="M6 1053q0 192 137 329q140 140 332 140q197 0 334 -140q137 -137 137 -329v-285h-188v285q0 115 -84 196q-81 84 -199 84q-115 0 -199 -84q-81 -78 -81 -196q0 -120 81 -201q84 -84 199 -84h39v-182h-39q-191 0 -332 135q-137 137 -137 332z" />
<glyph unicode="&#xab;" horiz-adv-x="833" d="M6 160q90 87 90 202v17l-2 18q-13 129 -88 199q0 -3 30.5 28.5t61.5 63.5l31 33q2 -2 16.5 -21.5t38 -56.5t45.5 -77t38.5 -86.5t17.5 -82.5v-37q-3 -59 -43 -141t-72.5 -128t-40.5 -54q-8 8 -20.5 21.5t-39.5 41t-45 45t-18 15.5zM354 158q90 90 90 202v17l-2 18 q-17 130 -88 199q0 -3 30 28.5t60 63.5l31 33q8 -8 41 -55t73.5 -129.5t41.5 -139.5v-37q-1 -27 -10 -59.5t-22.5 -62.5t-30 -60t-33 -55.5t-29.5 -44.5t-22 -31l-9 -12q-8 8 -20.5 21.5t-39 42t-44 46t-17.5 15.5z" />
<glyph unicode="&#xac;" d="M-2 662h479q120 0 201 -84q94 -91 94 -199q6 -2 45 -2t84 1.5t45 2.5q0 190 -137 330q-137 137 -332 137h-479v-186z" />
<glyph unicode="&#xad;" horiz-adv-x="772" d="M2 281v188h563v-188h-563z" />
<glyph unicode="&#xae;" d="M0 -279h940v-188h-940v188zM2 94v285q0 193 137 330q136 139 332 139q198 0 334 -139q137 -137 137 -330v-19h-190v19q0 117 -82 196q-81 84 -199 84q-115 0 -199 -84q-84 -81 -84 -196v-285h-186z" />
<glyph unicode="&#xaf;" d="M2 1333v189h940v-189h-940z" />
<glyph unicode="&#xb0;" d="M4 1053q0 192 137 329q137 140 332 140q197 0 334 -140q137 -137 137 -329q0 -195 -137 -332q-138 -135 -334 -135q-194 0 -332 135q-137 137 -137 332zM193 1053q0 -120 81 -201q84 -84 199 -84q118 0 199 84q84 84 84 201q0 115 -84 196q-81 84 -199 84 q-115 0 -199 -84q-81 -78 -81 -196z" />
<glyph unicode="&#xb1;" horiz-adv-x="776" d="M2 186v189h563v-189h-563zM2 745v187h563v-187h-563zM190 557v563h187v-563h-187z" />
<glyph unicode="&#xb2;" d="M6 1032v19q0 194 137 331q141 138 332 138q196 0 334 -138q137 -137 137 -331q0 -195 -137 -332q-138 -135 -334 -135h-280v182h280q115 0 199 84q84 87 84 201t-84 198q-82 82 -199 82q-114 0 -199 -82q-81 -81 -81 -198v-19h-189zM195 209v186h657v-186h-657z" />
<glyph unicode="&#xb3;" d="M4 678v18h189v-18q0 -117 81 -201q85 -82 199 -82q117 0 199 82q84 87 84 201q0 118 -84 199q-84 84 -199 84h-37v186h37q197 0 334 -137t137 -332q0 -192 -137 -332q-138 -135 -334 -135q-194 0 -332 135q-137 140 -137 332zM193 1333v189h657v-189h-657z" />
<glyph unicode="&#xb4;" horiz-adv-x="389" d="M2 1057v463h184v-463h-184z" />
<glyph unicode="&#xb5;" d="M0 569v-1321h188v748q124 -90 283 -90q191 0 332 135q139 139 139 321v207h-192l2 -196q6 -113 -82 -201q-84 -84 -199 -84q-121 0 -199 84q-84 84 -84 201v196h-188z" />
<glyph unicode="&#xb6;" d="M4 387q3 94 43 178.5t107 147.5q137 131 319 125q94 4 182 -34t151 -103t100.5 -152.5t37.5 -179.5v-1125h-188v750q-67 -50 -156.5 -73t-183.5 -13q-77 8 -184 74t-138 112q-45 62 -67 128.5t-23 164.5zM193 356q0 -68 36.5 -133t104.5 -100q44 -31 82 -31q28 -6 90 -4 q6 -2 39.5 8t46.5 17q36 11 88 63q4 6 14 19.5t14 19.5t12 18.5t12 21t8.5 21t7.5 25.5q8 46 8 68q0 115 -85 200t-198 82h-12q-61 -3 -115.5 -31.5t-91.5 -76.5q-61 -77 -61 -187zM362 369q0 46 32 79t79 33t80 -33t33 -79t-33 -79.5t-80 -33.5t-79 33.5t-32 79.5z" />
<glyph unicode="&#xb7;" horiz-adv-x="442" d="M2 381q0 46 32 79.5t79 33.5t79.5 -33.5t32.5 -79.5q0 -47 -32.5 -80t-79.5 -33t-79 33t-32 80z" />
<glyph unicode="&#xb8;" horiz-adv-x="616" d="M2 -215q0 47 32 80t79 33h8h287v-187h-2q-17 -182 -119 -286l-137 104q54 54 65 182h-16q-34 -39 -86 -39q-47 0 -79 33.5t-32 79.5z" />
<glyph unicode="&#xb9;" horiz-adv-x="866" d="M0 580v186h657v-186h-657zM238 954v566h186v-566h-186z" />
<glyph unicode="&#xba;" d="M2 227v187h942v-187h-942zM6 1051q0 194 137 331q141 138 332 138q196 0 334 -138q137 -137 137 -331q0 -193 -137 -330q-138 -135 -334 -135q-191 0 -332 135q-137 137 -137 330zM195 1051q0 -117 81 -201q85 -82 199 -82q117 0 199 82q84 87 84 201q0 117 -84 198 q-81 84 -199 84q-115 0 -199 -84q-81 -78 -81 -198zM365 1051q0 46 31.5 79t78.5 33t80 -33t33 -79t-33 -79.5t-80 -33.5t-78.5 33.5t-31.5 79.5z" />
<glyph unicode="&#xbb;" horiz-adv-x="837" d="M8 395q1 57 41.5 139.5t73.5 129.5t41 55q8 -8 20.5 -21.5t39.5 -42t45 -46t18 -15.5q-42 -39 -62 -90t-28 -127v-17q0 -115 90 -202q0 3 -30.5 -27.5t-61 -63t-31.5 -34.5q-151 211 -156 362zM356 397q1 57 41.5 139.5t73.5 129.5t41 55q8 -8 20.5 -21.5t39 -42t44 -46 t17.5 -15.5q-42 -39 -61 -89t-29 -128v-17q0 -115 90 -202q0 3 -30.5 -28t-60.5 -63l-30 -32q-3 3 -17 22t-37.5 57t-45.5 81t-38.5 97.5t-17.5 102.5z" />
<glyph unicode="&#xbc;" horiz-adv-x="927" d="M2 956v566h186v-566h-186zM227 2l295 1352h185l-295 -1352h-185z" />
<glyph unicode="&#xbd;" horiz-adv-x="1593" d="M2 1036v19q0 192 137 329q137 140 332 140q194 0 334 -140q137 -137 137 -329q0 -195 -137 -332q-141 -135 -334 -135h-283v182h283q118 0 199 84q82 82 82 201q0 117 -82 196q-81 84 -199 84t-199 -84q-84 -81 -84 -196v-19h-186zM188 211v188h660v-188h-660zM961 0 l294 1352h185l-295 -1352h-184z" />
<glyph unicode="&#xbe;" horiz-adv-x="1552" d="M4 676v18h189v-18q0 -117 81 -201q85 -82 199 -82q117 0 199 82q84 87 84 201q0 117 -84 198q-84 84 -199 84h-37v187h37q197 0 334 -137t137 -332q0 -192 -137 -332q-138 -135 -334 -135q-194 0 -332 135q-137 140 -137 332zM193 1331v189h657v-189h-657zM922 2 l295 1352h184l-295 -1352h-184z" />
<glyph unicode="&#xbf;" d="M6 373v18h189v-18q0 -121 81 -199q84 -84 199 -84q118 0 199 84q84 81 84 199q0 114 -84 198q-81 84 -199 84h-86v236h184v-62q133 -27 236 -127q137 -137 137 -329q0 -195 -137 -332t-334 -137q-192 0 -332 137q-137 137 -137 332zM365 1167q0 48 31.5 80.5t78.5 32.5 t80 -33t33 -80q0 -46 -33 -79t-80 -33t-78.5 33t-31.5 79z" />
<glyph unicode="&#xc0;" d="M4 383q0 193 137 330t332 137q197 0 334 -137t137 -330v-285h-188v285q0 116 -84 197q-81 84 -199 84q-115 0 -199 -84q-81 -78 -81 -197q0 -120 81 -201q84 -84 199 -84h39v-182h-39q-194 0 -332 135q-137 137 -137 332zM272 1063v461h185v-461h-185z" />
<glyph unicode="&#xc1;" d="M6 377q0 195 137 332q140 137 332 137q197 0 334 -137t137 -332v-283h-188v283q0 114 -84 198t-199 84q-112 0 -199 -84q-81 -81 -81 -198t81 -201q85 -82 199 -82h39v-184h-39q-191 0 -332 135q-137 137 -137 332zM573 1059v463h187v-463h-187z" />
<glyph unicode="&#xc2;" d="M6 381q0 195 137 332q140 137 332 137q197 0 334 -137t137 -332v-283h-188v283q0 118 -84 199q-84 84 -199 84q-112 0 -199 -84q-81 -78 -81 -199q0 -117 81 -201q85 -82 199 -82h39v-184h-39q-192 0 -332 137q-137 137 -137 330zM133 1364q1 2 21.5 17.5t57 38.5 t78.5 45t92.5 38t92.5 17h19q59 -2 140 -41t130.5 -74.5t52.5 -40.5q-8 -8 -21.5 -20.5t-41.5 -39t-45.5 -44t-14.5 -17.5q-88 91 -237 88q-129 -13 -201 -88q4 0 -27 30.5t-63 60.5z" />
<glyph unicode="&#xc3;" d="M8 379q0 195 137 332q140 137 332 137q197 0 334 -137t137 -332v-283h-188v283q0 121 -84 199q-78 84 -199 84q-114 0 -198 -84q-82 -79 -82 -199q0 -117 82 -199q84 -84 198 -84h39v-182h-39q-191 0 -332 135q-137 137 -137 330zM8 766v16q0 187 137 324 q140 137 334 137h37v-2q93 9 160 82q84 81 84 201h188q0 -195 -137 -332q-126 -123 -295 -135h-18h-19l-37 -2q-92 -12 -163 -80q-82 -82 -82 -193v-16h-189z" />
<glyph unicode="&#xc4;" d="M4 383q0 193 137 330t332 137q197 0 334 -137t137 -330v-285h-188v285q0 116 -84 197q-81 84 -199 84q-115 0 -199 -84q-81 -78 -81 -197q0 -120 81 -201q84 -84 199 -84h39v-182h-39q-194 0 -332 135q-137 137 -137 332zM164 1188q0 45 32 78.5t78 33.5q47 0 80 -33.5 t33 -78.5q0 -47 -33 -80t-80 -33q-48 0 -79 30.5t-31 82.5zM616 1186q0 45 32.5 78.5t78.5 33.5q47 0 80 -33.5t33 -78.5q0 -47 -33 -80t-80 -33t-79 33t-32 80z" />
<glyph unicode="&#xc5;" d="M6 379q0 192 137 332q140 137 332 137q197 0 334 -137q137 -140 137 -332v-285h-188v285q0 115 -84 199q-81 81 -199 81q-115 0 -199 -81q-81 -81 -81 -199q0 -117 81 -201q87 -84 199 -84h39v-182h-39q-191 0 -332 135q-137 137 -137 332zM358 1165q0 45 32.5 79 t78.5 34q47 0 80 -34t33 -79q0 -47 -33 -79.5t-80 -32.5t-79 32.5t-32 79.5z" />
<glyph unicode="&#xc6;" horiz-adv-x="1638" d="M8 379q0 192 137 332q140 137 332 137q145 0 258 -76q110 76 254 76q197 0 334 -137q137 -140 137 -332v-19h-190v19q0 117 -82 199q-81 81 -197 81t-200 -81q-84 -84 -84 -199q0 -114 84 -201q87 -84 198 -84h39v-182h-37q-196 0 -334 135q-137 137 -137 332 q0 141 74 256q-52 24 -117 24q-114 0 -198 -81q-82 -82 -82 -199q0 -116 82 -201q87 -84 198 -84h39v-182h-39q-191 0 -332 135q-137 137 -137 332zM879 379q0 46 31.5 79.5t78.5 33.5t80 -33.5t33 -79.5q0 -47 -33 -80t-80 -33t-78.5 32.5t-31.5 80.5z" />
<glyph unicode="&#xc7;" d="M6 381q0 195 137 332q140 137 332 137h39v-186h-39q-112 0 -199 -84q-81 -81 -81 -199q0 -117 81 -201q85 -82 199 -82q117 0 199 82q84 87 84 201v18h188v-18q0 -195 -137 -332q-138 -135 -334 -135q-191 0 -332 135q-137 137 -137 332zM362 -207q0 47 32 80t79 33h295 v-187h-2q-14 -181 -119 -286l-135 104q50 48 66 182h-19q-33 -38 -86 -38q-47 0 -79 32.5t-32 79.5z" />
<glyph unicode="&#xc8;" d="M6 379q0 195 137 332q140 137 332 137q197 0 334 -137t137 -332v-19h-188v19q0 115 -84 199q-81 81 -197 81q-117 0 -201 -81q-81 -81 -81 -199q0 -117 81 -201q87 -84 199 -84h39v-182h-37q-193 0 -334 135q-137 137 -137 332zM272 1061v463h185v-463h-185zM365 379 q0 46 31.5 79.5t78.5 33.5t80 -33.5t33 -79.5q0 -47 -33 -80t-80 -33t-78.5 32.5t-31.5 80.5z" />
<glyph unicode="&#xc9;" d="M6 379q0 195 137 332q140 137 332 137q197 0 334 -137t137 -332v-19h-188v19q0 115 -84 199q-81 81 -197 81q-117 0 -201 -81q-81 -81 -81 -199q0 -117 81 -201q87 -84 199 -84h39v-182h-37q-193 0 -334 135q-137 137 -137 332zM365 379q0 46 31.5 79.5t78.5 33.5 t80 -33.5t33 -79.5q0 -47 -33 -80t-80 -33t-78.5 32.5t-31.5 80.5zM567 1061v463h185v-463h-185z" />
<glyph unicode="&#xca;" d="M14 383q0 194 138 332q137 137 329 137q197 0 334 -137t137 -332v-16h-188v16q0 121 -84 199q-78 84 -195 84q-119 0 -200 -84q-84 -78 -84 -199q0 -118 84 -199q81 -84 196 -84h39v-182h-35q-195 0 -333 135q-138 138 -138 330zM139 1370q3 3 21 16.5t55 37t78 45t94 38 t100 17.5q59 -3 144.5 -42.5t136 -72t57.5 -39.5q-8 -8 -21.5 -20.5t-42 -39.5t-46 -45t-15.5 -18q-40 43 -94 66.5t-108 23.5l-33 -2q-131 -13 -201 -88q3 0 -28.5 30.5t-63.5 61.5zM373 383q0 46 31.5 79.5t76.5 33.5q47 0 80 -33.5t33 -79.5t-33 -79.5t-80 -33.5 q-45 0 -76.5 33.5t-31.5 79.5z" />
<glyph unicode="&#xcb;" d="M6 381q0 195 137 332q140 137 332 137q197 0 334 -137t137 -332v-19h-188v19q0 118 -84 199q-84 84 -197 84q-114 0 -201 -84q-81 -78 -81 -199q0 -117 81 -201q85 -82 199 -82h39v-184h-37q-194 0 -334 137q-137 137 -137 330zM150 1186q0 45 32 78.5t78 33.5t79.5 -34 t33.5 -78q0 -47 -33.5 -80t-79.5 -33q-49 0 -79.5 30t-30.5 83zM365 381q0 46 31.5 79.5t78.5 33.5t80 -33.5t33 -79.5q0 -47 -33 -80t-80 -33t-78.5 32.5t-31.5 80.5zM602 1182q0 46 32 79t79 33q46 0 79 -33t33 -79t-33 -79.5t-79 -33.5q-47 0 -79 33.5t-32 79.5z" />
<glyph unicode="&#xcc;" d="M10 360v19q0 190 140 330q136 139 329 139q198 0 334 -139q137 -137 137 -330v-285h-188v285q0 118 -84 196q-78 84 -199 84q-114 0 -198 -84q-82 -79 -82 -196v-19h-189zM272 1061v463h185v-463h-185z" />
<glyph unicode="&#xcd;" d="M8 360v19q0 193 137 330q139 139 332 139q198 0 334 -139q137 -137 137 -330v-285h-188v285q0 118 -84 199q-78 81 -199 81q-114 0 -198 -81q-82 -82 -82 -199v-19h-189zM573 1061v463h187v-463h-187z" />
<glyph unicode="&#xce;" d="M6 360v19q0 193 137 330q139 139 332 139q198 0 334 -139q137 -137 137 -330v-285h-188v285q0 115 -84 199q-81 81 -199 81q-115 0 -199 -81q-81 -81 -81 -199v-19h-189zM133 1364q3 3 20.5 17t55 38t79 46t95 38t100.5 17q37 -1 85 -17.5t89.5 -38.5t79 -45.5t58 -38 t22.5 -16.5q-8 -8 -21.5 -20.5t-41.5 -39t-45.5 -44t-14.5 -17.5q-87 90 -202 90h-33q-132 -17 -203 -90q4 0 -27 30.5t-63 60.5z" />
<glyph unicode="&#xcf;" d="M10 362v17q0 192 140 332q137 137 329 137q197 0 334 -137t137 -332v-283h-188v283q0 121 -84 199q-78 84 -199 84q-114 0 -198 -84q-82 -79 -82 -199v-17h-189zM139 1176q0 46 32 79t79 33t79.5 -33t32.5 -79q0 -47 -32.5 -80t-79.5 -33q-48 0 -79.5 31t-31.5 82z M592 1174q0 46 31.5 79t78.5 33t80 -33t33 -79q0 -47 -33 -80t-80 -33t-78.5 32.5t-31.5 80.5z" />
<glyph unicode="&#xd0;" horiz-adv-x="1282" d="M6 377q0 193 137 330q139 139 332 139h39v-189h-39q-115 0 -199 -84q-81 -78 -81 -196q0 -120 81 -201q84 -84 199 -84q118 0 199 84q84 84 84 201v282h-129v189h129v672h188v-672h133v-189h-133v-282q0 -195 -137 -332q-138 -135 -334 -135q-191 0 -332 135 q-137 137 -137 332z" />
<glyph unicode="&#xd1;" d="M2 94v285q0 193 137 330q136 139 332 139q198 0 334 -139q137 -137 137 -330v-285h-190v285q0 117 -82 199q-81 81 -199 81q-115 0 -199 -81q-84 -84 -84 -199v-285h-186zM4 762v14q0 195 137 332t334 137h37v-2q89 9 160 80q84 87 84 201h188q0 -193 -137 -330 q-126 -123 -295 -135h-18h-19l-39 -2q-92 -12 -162 -82q-81 -78 -81 -199v-14h-189z" />
<glyph unicode="&#xd2;" d="M4 379q0 193 137 330q136 139 332 139q198 0 334 -139q137 -137 137 -330q0 -195 -137 -332q-138 -135 -334 -135q-194 0 -332 135q-137 137 -137 332zM193 379q0 -120 81 -201q84 -84 199 -84q118 0 199 84q84 84 84 201q0 115 -84 199q-81 81 -199 81q-115 0 -199 -81 q-81 -81 -81 -199zM274 1061v463h185v-463h-185z" />
<glyph unicode="&#xd3;" d="M10 379q0 189 140 332q137 137 329 137q197 0 334 -137q137 -140 137 -332q0 -195 -137 -332q-138 -135 -334 -135q-191 0 -329 135q-140 140 -140 332zM199 379q0 -116 82 -201q87 -84 198 -84q118 0 199 84q84 84 84 201q0 118 -84 199q-78 81 -199 81q-114 0 -198 -81 q-82 -82 -82 -199zM582 1061v463h184v-463h-184z" />
<glyph unicode="&#xd4;" d="M8 381q0 195 137 332q140 137 332 137q197 0 334 -137t137 -332q0 -193 -137 -330t-334 -137q-192 0 -332 137q-137 137 -137 330zM137 1360q3 3 21 17t55.5 38t79 46t94.5 38t100 17q21 -1 45 -6t48 -14t48 -20t47.5 -24t43.5 -25t39 -24t31 -20.5t22 -15.5l10 -7 q-1 -1 -33 -31.5t-62.5 -60t-27.5 -29.5q-87 90 -202 90h-29q-137 -17 -205 -90q3 0 -28.5 30.5t-63.5 60.5zM197 381q0 -116 82 -201q85 -82 198 -82q120 0 199 82q84 84 84 201q0 121 -84 199q-81 84 -199 84q-111 0 -198 -84q-82 -79 -82 -199z" />
<glyph unicode="&#xd5;" d="M2 758v16q0 193 137 330q136 139 334 139h37v-4q90 12 160 82q82 85 82 201h190q0 -195 -137 -332q-126 -123 -295 -135h-37l-39 -2q-91 -12 -162 -80q-84 -84 -84 -199v-16h-186zM6 381q0 193 137 330q140 137 332 137q197 0 334 -137t137 -330q0 -195 -137 -332 q-138 -135 -334 -135q-191 0 -332 135q-137 137 -137 332zM195 381q0 -120 81 -201q84 -84 199 -84q118 0 199 84q84 84 84 201q0 116 -84 197q-81 84 -199 84q-115 0 -199 -84q-81 -78 -81 -197z" />
<glyph unicode="&#xd6;" d="M2 379q0 195 137 332t332 137q197 0 334 -137t137 -332t-137 -332q-138 -135 -334 -135q-194 0 -332 135q-137 137 -137 332zM139 1190q0 45 32.5 79t78.5 34t79 -34t33 -79q0 -47 -32.5 -80t-79.5 -33q-48 0 -79.5 31t-31.5 82zM188 379q0 -114 84 -201q85 -82 199 -82 q117 0 199 82q82 85 82 201q0 117 -82 199q-84 84 -199 84q-112 0 -199 -84q-84 -84 -84 -199zM592 1188q0 45 32 78.5t78 33.5q47 0 80 -33.5t33 -78.5q0 -47 -33 -80t-80 -33t-78.5 32.5t-31.5 80.5z" />
<glyph unicode="&#xd7;" horiz-adv-x="927" d="M0 2l252 422l-250 424h184l158 -270l162 272h184l-254 -428l250 -424h-184l-160 270v2v-2l-158 -266h-184z" />
<glyph unicode="&#xd8;" d="M0 381q0 195 137 332q134 134 320 137l63 285h185l-70 -314q91 -35 168 -108q137 -137 137 -332q0 -193 -137 -330q-141 -135 -334 -135q-21 0 -31 2l-28 -135h-185l39 178q-72 35 -127 90q-137 137 -137 330zM186 381q0 -114 84 -201q13 -15 35 -30l111 509 q-82 -15 -146 -79q-84 -81 -84 -199zM477 98q112 3 191 82q82 85 82 201q0 120 -82 199q-35 35 -74 55z" />
<glyph unicode="&#xd9;" d="M2 375v280h186v-280q0 -117 84 -201t199 -84q118 0 199 84q82 82 82 201v280h190v-280q0 -195 -137 -332q-138 -135 -334 -135q-194 0 -332 135q-137 137 -137 332zM276 1059v461h187v-461h-187z" />
<glyph unicode="&#xda;" d="M2 385v283h186v-283q0 -114 84 -201q85 -82 199 -82q117 0 199 82q82 85 82 201v283h190v-283q0 -195 -137 -332q-138 -135 -334 -135q-194 0 -332 135q-137 137 -137 332zM578 1061v463h184v-463h-184z" />
<glyph unicode="&#xdb;" d="M2 377v280h186v-280q0 -117 84 -201t199 -84q118 0 199 84q82 82 82 201v280h190v-280q0 -195 -137 -332q-138 -135 -334 -135q-194 0 -332 135q-137 137 -137 332zM129 1366q1 2 21.5 17.5t57 38.5t78.5 45t92.5 38t92.5 17h8q59 -2 142.5 -41t136 -74.5t55.5 -40.5 q-8 -8 -21.5 -20.5t-41.5 -39t-45.5 -44t-14.5 -17.5q-42 43 -97.5 66.5t-109.5 23.5h-24q-133 -14 -207 -90q4 0 -27 30.5t-63 60.5z" />
<glyph unicode="&#xdc;" d="M2 381v281h186v-281q0 -114 84 -201q87 -84 199 -84q115 0 199 84q82 85 82 201v281h190v-281q0 -195 -137 -332q-138 -135 -334 -135q-194 0 -332 135q-137 137 -137 332zM133 1176q0 46 32 79t79 33t79.5 -33t32.5 -79q0 -47 -32.5 -80t-79.5 -33q-48 0 -79.5 31 t-31.5 82zM586 1174q0 46 31.5 79t78.5 33t80 -33t33 -79q0 -47 -33 -80t-80 -33t-78.5 32.5t-31.5 80.5z" />
<glyph unicode="&#xdd;" d="M4 377v18h189v-18q0 -120 81 -201q84 -84 199 -84q118 0 199 84q84 84 84 201v18h188v-18q0 -195 -137 -332q-138 -135 -334 -135q-194 0 -332 135q-137 137 -137 332zM362 -420q0 46 32 79.5t79 33.5t80 -33.5t33 -79.5t-33 -79t-80 -33t-79 33t-32 79zM573 1061v463 h187v-463h-187z" />
<glyph unicode="&#xde;" horiz-adv-x="1024" d="M2 -272v1351h186v-268q74 31 177 31q196 0 333 -137q138 -138 138 -330q0 -194 -138 -332q-138 -135 -333 -135q-92 0 -177 31v-211h-186zM188 152q77 -62 177 -62q120 0 198 84q84 84 84 201q0 115 -84 196q-78 84 -198 84q-99 0 -177 -63v-440z" />
<glyph unicode="&#xdf;" d="M0 373q0 192 137 329q137 140 332 140q194 0 334 -140q137 -137 137 -329q0 -195 -137 -332q-141 -135 -334 -135h-37v182h37q118 0 199 84q82 82 82 201q0 117 -82 196q-81 84 -199 84t-199 -84q-84 -81 -84 -196v-1125h-186v1125zM358 1174q0 46 32 79t79 33t80 -33 t33 -79q0 -47 -33 -80t-80 -33t-79 33t-32 80z" />
<glyph unicode="&#xe0;" d="M6 379q0 195 137 332q140 137 332 137q197 0 334 -137t137 -332v-285h-188v285q0 115 -84 199q-81 81 -199 81q-115 0 -199 -81q-81 -81 -81 -199q0 -117 81 -201q87 -84 199 -84h39v-182h-39q-191 0 -332 135q-137 137 -137 332zM274 1061v463h185v-463h-185z" />
<glyph unicode="&#xe1;" d="M6 383q0 195 137 332q140 137 332 137q197 0 334 -137t137 -332v-283h-188v283q0 118 -84 199q-84 84 -199 84q-112 0 -199 -84q-81 -78 -81 -199q0 -117 81 -201q85 -82 199 -82h39v-184h-39q-192 0 -332 137q-137 137 -137 330zM573 1061v463h187v-463h-187z" />
<glyph unicode="&#xe2;" d="M6 379q0 195 137 332q140 137 332 137q197 0 334 -137t137 -332v-285h-188v285q0 115 -84 199q-81 81 -199 81q-115 0 -199 -81q-81 -81 -81 -199q0 -117 81 -201q87 -84 199 -84h39v-182h-39q-191 0 -332 135q-137 137 -137 332zM133 1364q3 3 22 17t56.5 38t79 46 t92 38t92.5 17h14q37 -1 84.5 -17.5t88 -38.5t77.5 -45.5t56.5 -38t21.5 -16.5q-8 -8 -21.5 -20.5t-41.5 -39t-45.5 -44t-14.5 -17.5q-42 42 -97 66t-108 24l-26 -2q-137 -17 -207 -88q4 0 -27 30.5t-63 60.5z" />
<glyph unicode="&#xe3;" d="M33 379q0 195 137 332t332 137q197 0 334 -137t137 -332v-285h-191v285q0 117 -82 199q-81 81 -198 81q-115 0 -199 -81q-84 -84 -84 -199q0 -114 84 -201q87 -84 199 -84h39v-182h-39q-194 0 -332 135q-137 137 -137 332zM33 758v14q0 195 137 332t334 137h37v-2 q89 9 159 82q82 82 82 201h191q0 -195 -137 -332q-126 -123 -295 -135h-37l-39 -2q-92 -12 -162 -82q-84 -81 -84 -199v-14h-186z" />
<glyph unicode="&#xe4;" d="M6 379q0 195 137 332q140 137 332 137q197 0 334 -137t137 -332v-283h-188v283q0 115 -84 199t-199 84q-112 0 -199 -84q-81 -81 -81 -199q0 -117 81 -201q85 -82 199 -82h39v-184h-39q-191 0 -332 135q-137 137 -137 332zM166 1178q0 46 32 79t78 33q47 0 80 -33t33 -79 q0 -47 -33 -80t-80 -33t-78.5 31t-31.5 82zM618 1176q0 46 32.5 79t78.5 33q47 0 80 -33t33 -79q0 -47 -33 -80t-80 -33q-46 0 -78.5 33t-32.5 80z" />
<glyph unicode="&#xe5;" d="M8 379q0 195 137 332q140 137 332 137q197 0 334 -137t137 -332v-283h-188v283q0 118 -84 199q-81 84 -199 84q-111 0 -198 -84q-82 -82 -82 -199q0 -116 82 -201q85 -82 198 -82h39v-184h-39q-191 0 -332 135q-137 137 -137 332zM360 1169q0 46 32 79.5t79 33.5 t80 -33.5t33 -79.5q0 -47 -33 -79.5t-80 -32.5t-79 32.5t-32 79.5z" />
<glyph unicode="&#xe6;" horiz-adv-x="1638" d="M2 379q0 192 137 332q137 137 332 137q146 0 256 -76q113 76 256 76q195 0 332 -137q139 -142 139 -332v-19h-190v19q0 118 -84 199q-78 81 -195 81q-120 0 -201 -81q-84 -81 -84 -199q0 -117 84 -201t199 -84h37v-182h-35q-196 0 -334 135q-137 137 -137 332 q0 141 74 256q-56 24 -117 24q-115 0 -199 -81q-84 -84 -84 -199q0 -114 84 -201q87 -84 199 -84h39v-182h-39q-194 0 -332 135q-137 137 -137 332zM872 379q0 46 32 79.5t79 33.5q46 0 79.5 -33.5t33.5 -79.5q0 -47 -33.5 -80t-79.5 -33q-47 0 -79 33t-32 80z" />
<glyph unicode="&#xe7;" d="M6 377q0 193 137 330q139 139 332 139h39v-189h-39q-115 0 -199 -84q-81 -78 -81 -196q0 -120 81 -201q84 -84 199 -84q118 0 199 84q84 84 84 201v18h188v-18q0 -195 -137 -332q-138 -135 -334 -135q-191 0 -332 135q-137 137 -137 332zM362 -211q0 46 32 79.5t79 33.5 h8h287v-189h-2q-14 -179 -119 -284l-135 102q51 51 66 182h-19q-32 -37 -86 -37q-47 0 -79 33t-32 80z" />
<glyph unicode="&#xe8;" d="M6 381q0 195 137 332q140 137 332 137q197 0 334 -137t137 -332v-19h-188v19q0 115 -84 199t-197 84q-114 0 -201 -84q-81 -81 -81 -199q0 -117 81 -201q85 -82 199 -82h39v-184h-37q-193 0 -334 135q-137 137 -137 332zM272 1059v463h185v-463h-185zM365 381 q0 46 31.5 79.5t78.5 33.5t80 -33.5t33 -79.5q0 -47 -33 -80t-80 -33t-78.5 32.5t-31.5 80.5z" />
<glyph unicode="&#xe9;" d="M8 381q0 195 137 332q140 137 332 137q197 0 334 -137t137 -332v-19h-188v19q0 121 -84 199q-81 84 -197 84q-113 0 -200 -84q-82 -79 -82 -199q0 -116 82 -201q85 -82 198 -82h39v-184h-37q-194 0 -334 137q-137 137 -137 330zM367 381q0 46 31.5 79.5t78.5 33.5 t80 -33.5t33 -79.5q0 -47 -33 -80t-80 -33t-78.5 32.5t-31.5 80.5zM582 1059v463h184v-463h-184z" />
<glyph unicode="&#xea;" d="M8 383q0 195 137 332q140 137 332 137q197 0 334 -137t137 -332v-16h-188v16q0 121 -84 199q-78 84 -197 84q-116 0 -200 -84q-82 -79 -82 -199q0 -116 82 -201q85 -82 198 -82h39v-182h-37q-193 0 -334 135q-137 137 -137 330zM135 1364q3 3 20.5 17t54.5 38t78 46 t93.5 38t99.5 17q59 -2 144.5 -42t136 -73.5t57.5 -40.5q-8 -8 -21.5 -20.5t-41 -39t-45 -44t-15.5 -17.5q-42 43 -96 66.5t-108 23.5h-31q-133 -17 -201 -90q3 0 -28.5 30.5t-63.5 60.5zM367 383q0 46 31.5 79.5t78.5 33.5t80 -33.5t33 -79.5q0 -47 -33 -80t-80 -33 t-78.5 32.5t-31.5 80.5z" />
<glyph unicode="&#xeb;" d="M8 379q0 193 137 330q139 139 332 139q198 0 334 -139q137 -137 137 -330v-19h-188v19q0 118 -84 199q-78 81 -197 81q-116 0 -200 -81q-82 -82 -82 -199q0 -119 82 -201q84 -84 198 -84h39v-182h-37q-193 0 -334 135q-137 137 -137 332zM152 1176q0 46 31.5 79t78.5 33 q46 0 79.5 -33t33.5 -79q0 -47 -33.5 -80t-79.5 -33q-48 0 -79 30.5t-31 82.5zM367 379q0 46 31.5 79.5t78.5 33.5t80 -33.5t33 -79.5q0 -47 -33 -80t-80 -33t-78.5 32.5t-31.5 80.5zM604 1174q0 46 32 79t79 33t79.5 -33t32.5 -79q0 -47 -32.5 -80t-79.5 -33t-79 33t-32 80 z" />
<glyph unicode="&#xec;" d="M10 360v19q0 190 140 330q136 139 329 139q198 0 334 -139q137 -137 137 -330v-285h-188v285q0 118 -84 196q-78 84 -199 84q-114 0 -198 -84q-82 -79 -82 -196v-19h-189zM272 1061v463h185v-463h-185z" />
<glyph unicode="&#xed;" d="M10 360v19q0 189 140 332q137 137 329 137q197 0 334 -137q137 -140 137 -332v-285h-188v285q0 118 -84 199q-78 81 -199 81q-114 0 -198 -81q-82 -82 -82 -199v-19h-189zM571 1061v463h187v-463h-187z" />
<glyph unicode="&#xee;" d="M8 358v19q0 193 137 330q139 139 332 139q198 0 334 -139q137 -137 137 -330v-285h-188v285q0 118 -84 196q-78 84 -199 84q-114 0 -198 -84q-82 -79 -82 -196v-19h-189zM139 1366q3 6 54.5 41.5t136.5 74.5t151 40h11q59 -2 142 -41t135.5 -74.5t55.5 -40.5 q-8 -8 -21.5 -20.5t-42 -39t-46 -44t-15.5 -17.5q-40 43 -96 66.5t-110 23.5h-29q-129 -13 -201 -90q3 0 -28.5 30.5t-63.5 60.5z" />
<glyph unicode="&#xef;" d="M8 362v19q0 193 137 330q140 137 332 137q197 0 334 -137t137 -330v-285h-188v285q0 119 -84 197q-78 84 -199 84q-114 0 -198 -84q-82 -79 -82 -197v-19h-189zM137 1178q0 46 32 79t79 33t79.5 -33t32.5 -79q0 -47 -32.5 -80t-79.5 -33q-48 0 -79.5 31t-31.5 82z M590 1176q0 46 31.5 79t78.5 33t80 -33t33 -79q0 -47 -33 -80t-80 -33t-78.5 32.5t-31.5 80.5z" />
<glyph unicode="&#xf0;" d="M8 379q0 193 137 330q139 139 332 139h39v-189h-39q-114 0 -198 -81q-82 -82 -82 -199q0 -119 82 -201q84 -84 198 -84q121 0 199 84q120 116 84 201l-273 600l-45 -84h-186l147 268l-163 361h176l94 -199l49 94h176l-151 -256l325 -700q38 -107 6.5 -225t-104.5 -191 q-138 -135 -334 -135q-191 0 -332 135q-137 137 -137 332z" />
<glyph unicode="&#xf1;" d="M2 94v285q0 195 137 332q42 42 51 49h-186v14q0 195 137 332t334 137h37v-2q90 9 160 82q84 84 84 201h188q0 -195 -137 -332q-126 -123 -295 -135h-18h-19l-39 -2q-92 -12 -162 -82q-81 -78 -81 -199v-12q117 86 278 86q197 0 334 -137t137 -332v-285h-190v285 q0 117 -82 199q-81 81 -199 81q-115 0 -199 -81q-84 -84 -84 -199v-285h-186z" />
<glyph unicode="&#xf2;" d="M6 381q0 193 137 330q140 137 332 137q197 0 334 -137t137 -330q0 -195 -137 -332q-138 -135 -334 -135q-191 0 -332 135q-137 137 -137 332zM195 381q0 -120 81 -201q84 -84 199 -84q118 0 199 84q84 84 84 201q0 116 -84 197q-81 84 -199 84q-115 0 -199 -84 q-81 -78 -81 -197zM276 1061v461h187v-461h-187z" />
<glyph unicode="&#xf3;" d="M8 379q0 193 137 330q139 139 332 139q198 0 334 -139q137 -137 137 -330q0 -195 -137 -332q-138 -135 -334 -135q-191 0 -332 135q-137 137 -137 332zM197 379q0 -119 82 -201q84 -84 198 -84q121 0 199 84q84 81 84 201q0 118 -84 196q-78 84 -199 84q-114 0 -198 -84 q-82 -79 -82 -196zM580 1059v463h184v-463h-184z" />
<glyph unicode="&#xf4;" d="M6 379q0 193 137 330q139 139 332 139q198 0 334 -139q137 -137 137 -330q0 -195 -137 -332q-138 -135 -334 -135q-191 0 -332 135q-137 137 -137 332zM135 1364q3 6 54.5 41.5t136.5 74.5t151 40h12q59 -2 141.5 -41t134 -74.5t54.5 -40.5q-8 -8 -21.5 -20.5t-41 -39 t-45 -44t-15.5 -17.5q-42 43 -96 66.5t-108 23.5h-31q-129 -13 -201 -90q3 0 -28.5 30.5t-63.5 60.5zM195 379q0 -120 81 -201q84 -84 199 -84q118 0 199 84q84 84 84 201q0 115 -84 199q-81 81 -199 81q-115 0 -199 -81q-81 -81 -81 -199z" />
<glyph unicode="&#xf5;" d="M2 758v14q0 195 137 332t334 137h37v-2q90 9 160 82q82 82 82 201h190q0 -195 -137 -332q-126 -123 -295 -135h-37l-39 -2q-92 -12 -162 -82q-84 -81 -84 -199v-14h-186zM6 379q0 195 137 332q140 137 332 137q197 0 334 -137t137 -332t-137 -332q-138 -135 -334 -135 q-191 0 -332 135q-137 137 -137 332zM195 379q0 -117 81 -201q85 -82 199 -82q117 0 199 82q84 87 84 201q0 115 -84 199t-199 84q-112 0 -199 -84q-81 -81 -81 -199z" />
<glyph unicode="&#xf6;" d="M6 381q0 193 137 330q140 137 332 137q197 0 334 -137t137 -330q0 -195 -137 -332q-138 -135 -334 -135q-191 0 -332 135q-137 137 -137 332zM143 1178q0 46 32.5 79t78.5 33q47 0 80 -33t33 -79q0 -47 -33 -80t-80 -33t-79 31t-32 82zM195 381q0 -120 81 -201 q84 -84 199 -84q118 0 199 84q84 84 84 201q0 116 -84 197q-81 84 -199 84q-115 0 -199 -84q-81 -78 -81 -197zM596 1176q0 46 32.5 79t78.5 33q47 0 79.5 -33t32.5 -79q0 -47 -32.5 -80t-79.5 -33q-46 0 -78.5 33t-32.5 80z" />
<glyph unicode="&#xf7;" d="M2 -92v186h940v-186h-940zM354 381q0 46 32 79.5t79 33.5q46 0 79.5 -33.5t33.5 -79.5q0 -47 -33.5 -80t-79.5 -33q-47 0 -79 33t-32 80zM354 -414q0 45 32.5 79t78.5 34q45 0 79 -34t34 -79q0 -47 -33.5 -79.5t-79.5 -32.5q-47 0 -79 32.5t-32 79.5z" />
<glyph unicode="&#xf8;" d="M6 379q0 195 137 332q137 134 322 137l61 282h187l-70 -313q96 -36 166 -106q137 -137 137 -332t-137 -332q-138 -135 -334 -135h-29l-28 -133h-187l39 178q-76 39 -127 90q-137 137 -137 332zM195 379q0 -117 81 -201q5 -6 35 -31l111 508q-81 -15 -146 -77 q-81 -81 -81 -199zM485 94q108 3 189 84q84 87 84 201q0 115 -84 199q-42 37 -72 51z" />
<glyph unicode="&#xf9;" d="M2 375v280h186v-280q0 -117 84 -201t199 -84q118 0 199 84q82 82 82 201v280h190v-280q0 -195 -137 -332q-138 -135 -334 -135q-194 0 -332 135q-137 137 -137 332zM276 1061v461h187v-461h-187z" />
<glyph unicode="&#xfa;" d="M2 383v281h186v-281q0 -114 84 -201q87 -84 199 -84q115 0 199 84q82 85 82 201v281h190v-281q0 -195 -137 -332q-138 -135 -334 -135q-194 0 -332 135q-137 137 -137 332zM578 1061v463h184v-463h-184z" />
<glyph unicode="&#xfb;" d="M2 377v280h186v-280q0 -117 84 -201t199 -84q118 0 199 84q82 82 82 201v280h190v-280q0 -195 -137 -332q-138 -135 -334 -135q-194 0 -332 135q-137 137 -137 332zM6 760v14q0 195 137 332q140 137 334 137h37v-2q89 9 160 80q84 87 84 201h188q0 -193 -137 -330 q-126 -123 -295 -135h-18h-19l-37 -2q-94 -12 -164 -82q-81 -78 -81 -199v-14h-189z" />
<glyph unicode="&#xfc;" d="M2 381v281h186v-281q0 -114 84 -201q87 -84 199 -84q115 0 199 84q82 85 82 201v281h190v-281q0 -195 -137 -332q-138 -135 -334 -135q-194 0 -332 135q-137 137 -137 332zM133 1176q0 46 32 79t79 33t79.5 -33t32.5 -79q0 -47 -32.5 -80t-79.5 -33q-48 0 -79.5 31 t-31.5 82zM586 1174q0 46 31.5 79t78.5 33t80 -33t33 -79q0 -47 -33 -80t-80 -33t-78.5 32.5t-31.5 80.5z" />
<glyph unicode="&#xfd;" d="M6 373v16h189v-16q0 -120 81 -201q84 -84 199 -84q118 0 199 84q84 84 84 201v16h188v-16q0 -195 -137 -332q-138 -135 -334 -135q-191 0 -332 135q-137 137 -137 332zM365 -424q0 46 31.5 79.5t78.5 33.5t80 -33.5t33 -79.5q0 -47 -33 -80t-80 -33t-78.5 32.5 t-31.5 80.5zM578 1061v463h184v-463h-184z" />
<glyph unicode="&#xfe;" horiz-adv-x="1024" d="M2 -270v1351h186v-268q79 33 177 33q197 0 333 -139q138 -138 138 -330q0 -194 -138 -332q-138 -135 -333 -135q-92 0 -177 31v-211h-186zM188 154q77 -62 177 -62q120 0 198 84q84 84 84 201q0 115 -84 196q-78 84 -198 84q-99 0 -177 -63v-440z" />
<glyph unicode="&#xff;" d="M4 373v16h189v-16q0 -120 81 -201q84 -84 199 -84q118 0 199 84q84 84 84 201v16h188v-16q0 -195 -137 -332q-138 -135 -334 -135q-194 0 -332 135q-137 137 -137 332zM129 1165q0 45 32.5 79t78.5 34q45 0 78.5 -34t33.5 -79q0 -47 -33 -79.5t-79 -32.5 q-48 0 -79.5 30.5t-31.5 81.5zM362 -424q0 46 32 79.5t79 33.5t80 -33.5t33 -79.5q0 -47 -33 -80t-80 -33t-79 33t-32 80zM582 1163q0 45 32 79t78 34q47 0 80 -34t33 -79q0 -47 -33 -79.5t-80 -32.5t-78.5 32.5t-31.5 79.5z" />
<glyph unicode="&#x152;" horiz-adv-x="1857" d="M4 379q0 195 137 332t332 137q197 0 334 -137q27 -27 45 -54q21 28 43 50q137 137 330 137q197 0 334 -137q137 -140 137 -332v-19h-189v19q0 117 -84 198q-79 82 -196 82t-199 -82q-84 -81 -84 -194v-4q0 -117 84 -201t197 -84h39v-182h-37q-194 0 -332 135 q-33 33 -47 51q-18 -24 -41 -47q-138 -135 -334 -135q-194 0 -332 135q-137 137 -137 332zM193 379q0 -117 81 -201q85 -82 199 -82q117 0 199 82q84 87 84 201q0 115 -84 199t-199 84q-112 0 -199 -84q-81 -81 -81 -199zM1114 375q0 46 32.5 79t78.5 33q47 0 79.5 -33 t32.5 -79q0 -47 -32.5 -80t-79.5 -33q-46 0 -78.5 33t-32.5 80z" />
<glyph unicode="&#x153;" horiz-adv-x="1882" d="M4 379q0 193 137 330q136 139 332 139q198 0 334 -139q24 -27 45 -54q5 6 20.5 26.5t24.5 29.5q137 137 330 137q197 0 334 -137t137 -330v-19h-189v19q0 119 -84 197q-78 84 -196 84t-199 -84q-86 -80 -86 -201v-17q3 -100 86 -180q81 -84 197 -84h39v-182h-37 q-198 0 -332 131q-24 21 -47 51q-42 -48 -43 -49q-138 -135 -334 -135q-194 0 -332 135q-137 137 -137 332zM193 379q0 -120 81 -201q84 -84 199 -84q118 0 199 84q84 84 84 201q0 115 -84 196q-81 84 -199 84q-115 0 -199 -84q-81 -78 -81 -196zM1116 381q0 45 33 79t78 34 q46 0 79 -34t33 -79q0 -47 -32.5 -80t-79.5 -33q-46 0 -78.5 33t-32.5 80z" />
<glyph unicode="&#x178;" d="M8 379v18h189v-18q0 -119 82 -201q84 -84 198 -84q121 0 199 84q84 81 84 201v18h188v-18q0 -195 -137 -332q-138 -135 -334 -135q-191 0 -332 135q-137 137 -137 332zM133 1171q0 46 32 79.5t79 33.5t79.5 -33.5t32.5 -79.5q0 -47 -32.5 -79.5t-79.5 -32.5 q-48 0 -79.5 30.5t-31.5 81.5zM367 -418q0 46 31.5 79.5t78.5 33.5t80 -33.5t33 -79.5t-33 -79t-80 -33t-78.5 33t-31.5 79zM586 1169q0 46 31.5 79.5t78.5 33.5t80 -33.5t33 -79.5q0 -47 -33 -79.5t-80 -32.5t-78.5 32.5t-31.5 79.5z" />
<glyph unicode="&#x2c6;" horiz-adv-x="923" d="M20 1368q8 6 21.5 16.5t54 37.5t78.5 47.5t85.5 37.5t84.5 17l16 -2h19l2 2q58 0 139 -39t133 -78l52 -39q-8 -8 -21.5 -20.5t-41 -39.5t-45 -45t-15.5 -18q-85 88 -201 88h-37q-116 0 -201 -88q3 0 -28 30.5t-63 61.5z" />
<glyph unicode="&#x2dc;" d="M2 758v16q0 193 137 330t334 137h37v-2q90 9 160 82q82 82 82 201h190q0 -195 -137 -332q-126 -123 -295 -135h-37l-39 -2q-92 -12 -162 -82q-84 -81 -84 -197v-16h-186z" />
<glyph unicode="&#x2000;" horiz-adv-x="765" />
<glyph unicode="&#x2001;" horiz-adv-x="1530" />
<glyph unicode="&#x2002;" horiz-adv-x="765" />
<glyph unicode="&#x2003;" horiz-adv-x="1530" />
<glyph unicode="&#x2004;" horiz-adv-x="510" />
<glyph unicode="&#x2005;" horiz-adv-x="382" />
<glyph unicode="&#x2006;" horiz-adv-x="255" />
<glyph unicode="&#x2007;" horiz-adv-x="255" />
<glyph unicode="&#x2008;" horiz-adv-x="191" />
<glyph unicode="&#x2009;" horiz-adv-x="306" />
<glyph unicode="&#x200a;" horiz-adv-x="85" />
<glyph unicode="&#x2010;" horiz-adv-x="772" d="M2 281v188h563v-188h-563z" />
<glyph unicode="&#x2011;" horiz-adv-x="772" d="M2 281v188h563v-188h-563z" />
<glyph unicode="&#x2012;" horiz-adv-x="772" d="M2 281v188h563v-188h-563z" />
<glyph unicode="&#x2013;" horiz-adv-x="761" d="M2 385v186h563v-186h-563z" />
<glyph unicode="&#x2014;" horiz-adv-x="899" d="M2 381v186h678v-186h-678z" />
<glyph unicode="&#x2018;" horiz-adv-x="722" d="M307 1059v461h185v-461h-185z" />
<glyph unicode="&#x2019;" horiz-adv-x="978" d="M578 1057v463h184v-463h-184z" />
<glyph unicode="&#x201a;" horiz-adv-x="817" d="M313 152h185v-463h-185v463z" />
<glyph unicode="&#x201c;" horiz-adv-x="927" d="M205 1059v461h184v-461h-184zM524 1061v461h185v-461h-185z" />
<glyph unicode="&#x201d;" d="M438 1057v463h185v-463h-185zM758 1059v463h184v-463h-184z" />
<glyph unicode="&#x201e;" horiz-adv-x="923" d="M205 127h186v-463h-186v463zM526 129h185v-463h-185v463z" />
<glyph unicode="&#x2022;" horiz-adv-x="659" d="M207 1174q0 46 31.5 79t78.5 33t80 -33t33 -79q0 -47 -33 -80t-80 -33t-78.5 32.5t-31.5 80.5z" />
<glyph unicode="&#x2026;" horiz-adv-x="1273" d="M8 113q0 46 32.5 79t78.5 33q47 0 79.5 -33t32.5 -79q0 -47 -32.5 -80t-79.5 -33t-79 31t-32 82zM463 111q0 46 31.5 79t76.5 33q47 0 80 -33t33 -79q0 -47 -33 -80t-80 -33q-46 0 -77 33t-31 80zM897 111q0 46 32 79t79 33q46 0 79 -33t33 -79q0 -47 -33 -80t-79 -33 q-47 0 -79 33t-32 80z" />
<glyph unicode="&#x202f;" horiz-adv-x="306" />
<glyph unicode="&#x2039;" horiz-adv-x="466" d="M-2 160q90 87 90 202v17h186v-19q-2 -59 -42 -141t-72.5 -128t-40.5 -54q-8 8 -20.5 21.5t-39 41t-44 45t-17.5 15.5zM-2 596q0 -3 30 28.5t60 63.5l31 33q8 -8 41 -55t73 -129.5t41 -139.5v-18h-186l-2 18q-17 133 -88 199z" />
<glyph unicode="&#x203a;" horiz-adv-x="833" d="M14 356v35q1 58 41 141t72.5 130t40.5 55q8 -8 20.5 -21.5t39.5 -42t45 -46t18 -15.5q-75 -70 -88 -201l-2 -16v-17q0 -54 23.5 -108t66.5 -94q0 3 -30.5 -28.5t-61.5 -63.5l-31 -33q-8 8 -40.5 54.5t-72 129t-41.5 141.5zM360 358v19v18q1 57 41.5 139.5t73.5 129.5 t41 55q8 -8 20.5 -21.5t39 -42t44 -46t17.5 -15.5q-71 -69 -88 -199l-2 -18v-17q0 -112 90 -202q0 3 -30.5 -28.5t-60.5 -63.5l-30 -33l-9 12q-9 12 -22 31t-29.5 44.5t-33 55.5t-30 60t-22.5 62.5t-10 59.5z" />
<glyph unicode="&#x205f;" horiz-adv-x="382" />
<glyph unicode="&#x20ac;" horiz-adv-x="1224" d="M0 287v188h94q24 133 129 238q137 137 332 137t332 -137q139 -136 139 -332v-16h-190v16q0 121 -84 199q-78 84 -195 84q-120 0 -201 -84q-52 -48 -69 -105h51v-188h-51q17 -57 69 -105q81 -84 199 -84h37v-182h-35q-196 0 -334 135q-105 102 -129 236h-94zM444 381 q0 46 32 79.5t79 33.5q46 0 79.5 -33.5t33.5 -79.5t-33.5 -79.5t-79.5 -33.5q-47 0 -79 33.5t-32 79.5z" />
<glyph unicode="&#x2122;" d="M2 557v285q0 195 137 332t332 137q197 0 334 -137t137 -332v-285h-190v285q0 119 -82 198q-84 84 -199 84q-112 0 -199 -84q-84 -81 -84 -198v-285h-186zM57 1335v187h834v-187h-834zM360 842q0 46 32 79t79 33t80 -33t33 -79q0 -47 -33 -80t-80 -33t-79 33t-32 80z" />
<glyph unicode="&#xe000;" horiz-adv-x="808" d="M0 0v809h809v-809h-809z" />
</font>
</defs>
</svg>
